:SAMPLES-PER-SECOND 30
:FULLY-SPECIFIED
:DEGREES
193
root  -10.4246 34.7765 -11.3663 -177.035 2.22508 179.367
RightUpLeg  -2.58045 -14.7524 -4.09681
RightLeg  7.76159 -6.60134 -0.467406
RightFoot  4.10898 0.0309884 -0.307448
RightToes  -25.5556 -0.11477 -0.222817
Spine  -2.43364 0.248283 -1.66502
Spine1  -4.70263 0.191383 -2.35595
HEad  -56.3679 -1.35569 13.4163
LeftShoulder1  -1.94126e-019 -3.10601e-018 -2.51263e-017
LeftArm  -17.6458 25.14 -77.7283
LeftForeArm  24.1671 -23.5881 -4.11791
LeftHand  -0.363345 0.968096 9.51381
RightShoulder  -4.96962e-017 0 -2.36833e-017
RightArm  -29.457 11.0473 47.0017
RightForeArm  -149.675 61.3207 165.277
RightHand  -0.71877 -2.36222 -27.1653
LeftUpLeg  -2.24467 -0.358643 3.33055
LeftLeg  2.50535 13.0049 -0.265124
LeftFoot  9.19062 -0.168137 2.26316
LeftToes  -26.0157 2.14545e-006 -7.7278e-009
194
root  -10.4507 34.777 -11.3485 -177.01 2.38402 179.357
RightUpLeg  -2.55673 -14.7523 -4.13406
RightLeg  7.52034 -6.50955 -0.433453
RightFoot  4.2229 0.0309201 -0.316566
RightToes  -25.5784 -0.115162 -0.223325
Spine  -2.30667 0.336667 -1.63324
Spine1  -4.44447 0.359021 -2.2881
HEad  -57.7606 -0.873845 13.4832
LeftShoulder1  -1.94126e-019 -3.10601e-018 -2.51263e-017
LeftArm  -17.7014 24.4513 -77.7542
LeftForeArm  24.7444 -22.6372 -3.97808
LeftHand  -0.360459 1.02446 9.49719
RightShoulder  -4.96962e-017 0 -2.36833e-017
RightArm  -23.7585 8.75376 45.7522
RightForeArm  -133.881 59.4217 167.31
RightHand  -2.59255 4.58153 -29.8053
LeftUpLeg  -2.42903 -0.429021 3.26865
LeftLeg  2.83513 13.2331 -0.19422
LeftFoot  9.01434 -0.165351 2.25895
LeftToes  -25.8871 2.14545e-006 -7.7278e-009
195
root  -10.4812 34.7771 -11.3183 -177.036 2.46381 179.349
RightUpLeg  -2.55932 -14.6898 -4.18149
RightLeg  7.44897 -6.49537 -0.424404
RightFoot  4.26843 0.0304122 -0.319869
RightToes  -25.7248 -0.115561 -0.223804
Spine  -2.14922 0.523851 -1.59135
Spine1  -4.13662 0.743093 -2.2031
HEad  -59.0288 -0.598456 13.2119
LeftShoulder1  -1.94126e-019 -3.10601e-018 -2.51263e-017
LeftArm  -17.8296 23.785 -77.8668
LeftForeArm  25.3572 -21.9372 -3.87745
LeftHand  -0.359928 0.937549 9.36171
RightShoulder  -4.96962e-017 0 -2.36833e-017
RightArm  -23.0564 6.13677 45.0566
RightForeArm  -120.163 58.2685 168.451
RightHand  -4.31053 7.33057 -38.2106
LeftUpLeg  -2.68132 -0.594813 3.20285
LeftLeg  3.33726 13.4681 -0.0807057
LeftFoot  8.78639 -0.160074 2.2449
LeftToes  -25.7848 2.14545e-006 -7.7278e-009
196
root  -10.5222 34.7768 -11.2914 -177.098 2.34715 179.311
RightUpLeg  -2.53447 -14.8567 -4.30825
RightLeg  7.48495 -6.40819 -0.422761
RightFoot  4.24453 0.0287565 -0.307115
RightToes  -25.892 -0.115967 -0.224191
Spine  -2.00023 0.691635 -1.52591
Spine1  -3.86296 1.1186 -2.08728
HEad  -59.8369 -0.25797 12.6596
LeftShoulder1  -1.94126e-019 -3.10601e-018 -2.51263e-017
LeftArm  -17.8137 23.5563 -77.9742
LeftForeArm  25.4454 -21.7421 -3.84412
LeftHand  -0.362522 0.986519 9.25618
RightShoulder  -4.96962e-017 0 -2.36833e-017
RightArm  -25.7766 3.26141 45.3497
RightForeArm  -122.415 57.6892 168.665
RightHand  -3.78679 5.12058 -40.4155
LeftUpLeg  -2.9585 -0.61273 3.10129
LeftLeg  3.89327 13.3739 0.0483754
LeftFoot  8.52165 -0.153516 2.17074
LeftToes  -25.4889 2.14545e-006 -7.7278e-009
197
root  -10.5597 34.7762 -11.2706 -177.087 1.97995 179.238
RightUpLeg  -2.56434 -15.0621 -4.44359
RightLeg  7.60201 -6.5501 -0.445501
RightFoot  4.13351 0.027345 -0.298076
RightToes  -26.1617 -0.116378 -0.224424
Spine  -1.92302 0.718523 -1.47134
Spine1  -3.74149 1.22916 -2.00455
HEad  -60.1727 0.178145 12.1781
LeftShoulder1  -1.94126e-019 -3.10601e-018 -2.51263e-017
LeftArm  -17.6934 24.0042 -77.937
LeftForeArm  25.1086 -21.9542 -3.84438
LeftHand  -0.363158 0.981329 9.28655
RightShoulder  -4.96962e-017 0 -2.36833e-017
RightArm  -32.358 0.854092 47.1535
RightForeArm  -134.771 58.1605 167.929
RightHand  -3.00876 3.59021 -37.7976
LeftUpLeg  -3.25694 -0.88103 2.97142
LeftLeg  4.2679 13.2851 0.1341
LeftFoot  8.43328 -0.151016 2.1406
LeftToes  -25.4875 2.14545e-006 -7.7278e-009
198
root  -10.5964 34.7753 -11.2555 -177.011 1.58809 179.168
RightUpLeg  -2.64976 -15.1431 -4.54609
RightLeg  7.72487 -6.8345 -0.479453
RightFoot  4.05614 0.0269096 -0.303095
RightToes  -26.3366 -0.116792 -0.224572
Spine  -1.92662 0.588717 -1.43439
Spine1  -3.77106 1.00924 -1.94444
HEad  -60.1574 0.678732 11.7766
LeftShoulder1  -1.94126e-019 -3.10601e-018 -2.51263e-017
LeftArm  -17.7291 24.9989 -77.7918
LeftForeArm  24.6703 -22.2188 -3.83244
LeftHand  -0.361184 0.990411 9.39587
RightShoulder  -4.96962e-017 0 -2.36833e-017
RightArm  -40.5627 -0.344873 50.022
RightForeArm  -144.829 60.5598 166.074
RightHand  -2.12009 1.1507 -36.646
LeftUpLeg  -3.48788 -1.15172 2.84651
LeftLeg  4.39273 13.1826 0.161533
LeftFoot  8.42626 -0.150246 2.12662
LeftToes  -25.4482 2.14545e-006 -7.7278e-009
199
root  -10.6194 34.7731 -11.2533 -176.959 1.43385 179.103
RightUpLeg  -2.73139 -15.0667 -4.62029
RightLeg  7.83588 -7.05539 -0.508581
RightFoot  3.95445 0.0260304 -0.301755
RightToes  -26.2214 -0.117207 -0.224743
Spine  -1.98345 0.371579 -1.38944
Spine1  -3.89724 0.59757 -1.85688
HEad  -59.7237 1.22748 11.4496
LeftShoulder1  -1.94126e-019 -3.10601e-018 -2.51263e-017
LeftArm  -17.8301 26.2755 -77.6014
LeftForeArm  24.1897 -22.012 -3.74789
LeftHand  -0.35809 1.00804 9.4563
RightShoulder  -4.96962e-017 0 -2.36833e-017
RightArm  -47.9506 0.0582594 53.2929
RightForeArm  -156.62 64.5791 162.505
RightHand  -1.16692 -1.74074 -36.2064
LeftUpLeg  -3.45973 -1.22582 2.752
LeftLeg  4.16616 13.105 0.109248
LeftFoot  8.52227 -0.151323 2.13895
LeftToes  -25.5273 2.14545e-006 -7.7278e-009
200
root  -10.6291 34.7716 -11.2601 -176.929 1.69501 179.061
RightUpLeg  -2.84321 -14.881 -4.66135
RightLeg  7.90666 -6.98727 -0.512351
RightFoot  3.91603 0.0244837 -0.290737
RightToes  -26.1346 -0.117623 -0.224936
Spine  -2.06227 0.179462 -1.29222
Spine1  -4.06342 0.22851 -1.66656
HEad  -59.0418 1.65109 11.1722
LeftShoulder1  -1.94126e-019 -3.10601e-018 -2.51263e-017
LeftArm  -18.0762 27.4082 -77.5067
LeftForeArm  24.1233 -20.7909 -3.51635
LeftHand  -0.356109 0.951358 9.28881
RightShoulder  -4.96962e-017 0 -2.36833e-017
RightArm  -52.8588 1.33409 56.0493
RightForeArm  -171.648 68.1401 157.798
RightHand  0.227278 -6.08738 -35.7264
LeftUpLeg  -3.24373 -0.905455 2.69871
LeftLeg  3.76737 13.048 0.018798
LeftFoot  8.64137 -0.152485 2.15852
LeftToes  -25.6129 2.14545e-006 -7.7278e-009
201
root  -10.6277 34.7674 -11.2685 -176.935 2.31015 179.066
RightUpLeg  -2.99925 -14.633 -4.6535
RightLeg  8.01589 -6.63678 -0.499456
RightFoot  3.851 0.0215195 -0.259202
RightToes  -26.0161 -0.118038 -0.225148
Spine  -2.12237 0.127162 -1.13343
Spine1  -4.18983 0.134251 -1.3482
HEad  -58.5092 1.79793 10.8746
LeftShoulder1  -1.94126e-019 -3.10601e-018 -2.51263e-017
LeftArm  -18.5318 27.9474 -77.5939
LeftForeArm  24.2249 -18.3892 -3.13664
LeftHand  -0.354013 0.955103 9.24097
RightShoulder  -4.96962e-017 0 -2.36833e-017
RightArm  -54.8664 2.32118 57.7446
RightForeArm  175.561 69.7657 154.354
RightHand  1.74641 -10.8841 -35.4762
LeftUpLeg  -2.99486 -0.44475 2.70574
LeftLeg  3.51647 13.1822 -0.0381903
LeftFoot  8.65788 -0.153126 2.18424
LeftToes  -25.6669 2.14545e-006 -7.7278e-009
202
root  -10.6202 34.7647 -11.2747 -176.991 3.07426 179.094
RightUpLeg  -3.10877 -14.2922 -4.62129
RightLeg  8.07993 -6.22983 -0.47593
RightFoot  3.83999 0.0188833 -0.231975
RightToes  -26.1883 -0.11845 -0.225377
Spine  -2.14944 0.15385 -0.951888
Spine1  -4.24685 0.194866 -0.985676
HEad  -58.2416 1.99789 10.4725
LeftShoulder1  -1.94126e-019 -3.10601e-018 -2.51263e-017
LeftArm  -19.6943 28.0061 -77.77
LeftForeArm  24.8033 -15.2833 -2.65095
LeftHand  -0.353967 0.964092 9.17997
RightShoulder  -4.96962e-017 0 -2.36833e-017
RightArm  -53.7102 2.20945 58.7156
RightForeArm  171.004 69.9184 153.564
RightHand  2.02886 -12.0853 -33.9376
LeftUpLeg  -2.79582 0.00186747 2.73968
LeftLeg  3.52374 13.4732 -0.037313
LeftFoot  8.51196 -0.151418 2.19604
LeftToes  -25.5814 2.14545e-006 -7.7278e-009
203
root  -10.6139 34.7637 -11.2738 -177.065 3.77106 179.124
RightUpLeg  -3.12712 -14.0367 -4.60306
RightLeg  7.99945 -5.77007 -0.432763
RightFoot  3.93811 0.0169416 -0.214175
RightToes  -26.6593 -0.118857 -0.22562
Spine  -2.14884 0.106525 -0.78527
Spine1  -4.24373 0.099029 -0.646897
HEad  -58.0543 2.71609 9.96966
LeftShoulder1  -1.94126e-019 -3.10601e-018 -2.51263e-017
LeftArm  -21.1565 28.0789 -77.8778
LeftForeArm  24.8623 -12.5857 -2.20799
LeftHand  -0.345186 1.22029 9.44172
RightShoulder  -4.96962e-017 0 -2.36833e-017
RightArm  -47.9264 0.87536 58.9978
RightForeArm  179.567 68.6893 156.181
RightHand  1.4978 -10.4158 -33.4638
LeftUpLeg  -2.81595 0.312737 2.7713
LeftLeg  3.97941 13.8284 0.0705851
LeftFoot  8.18813 -0.143926 2.17214
LeftToes  -25.607 2.14545e-006 -7.7278e-009
204
root  -10.6125 34.761 -11.2622 -177.109 4.36456 179.168
RightUpLeg  -3.1626 -13.8811 -4.5702
RightLeg  7.90208 -5.32631 -0.390454
RightFoot  4.00723 0.0148857 -0.194121
RightToes  -26.9127 -0.119259 -0.225874
Spine  -2.10568 -0.0114173 -0.630955
Spine1  -4.15157 -0.148253 -0.323781
HEad  -58.0106 3.84681 9.4679
LeftShoulder1  -1.94126e-019 -3.10601e-018 -2.51263e-017
LeftArm  -22.3624 28.3033 -77.9058
LeftForeArm  24.7443 -10.9058 -1.91732
LeftHand  -0.339845 1.32333 9.60409
RightShoulder  -4.96962e-017 0 -2.36833e-017
RightArm  -39.4235 -0.648133 58.6188
RightForeArm  -168.295 66.5936 159.706
RightHand  0.639175 -7.4918 -34.0642
LeftUpLeg  -3.12744 0.397588 2.80253
LeftLeg  4.90625 14.3036 0.30188
LeftFoot  7.68381 -0.13124 2.11567
LeftToes  -25.3933 2.14545e-006 -7.7278e-009
